<svg width="24" height="24" viewBox="0 0 24 24" fill="none" xmlns="http://www.w3.org/2000/svg">
    <path fill-rule="evenodd" clip-rule="evenodd" d="M14.1496 3.44046C14.8384 3.14967 15.5767 3 16.3223 3C17.0679 3 17.8063 3.14967 18.4951 3.44046C19.1838 3.7312 19.8095 4.15731 20.3366 4.69446C20.8638 5.23143 21.2823 5.86925 21.5677 6.57092C21.8531 7.27272 22 8.02493 22 8.78459C22 9.54425 21.8531 10.2965 21.5677 10.9983C21.2823 11.7 20.864 12.3376 20.3367 12.8746C20.3367 12.8746 20.3368 12.8745 20.3367 12.8746L12.6172 20.7394C12.2762 21.0869 11.7233 21.0869 11.3823 20.7394L3.66282 12.8746C2.59813 11.7898 2 10.3186 2 8.78459C2 7.25055 2.59813 5.77934 3.66282 4.6946C4.7275 3.60987 6.17152 3.00048 7.67721 3.00048C9.1829 3.00048 10.6269 3.60987 11.6916 4.6946L11.9998 5.00857L12.3078 4.69475C12.3078 4.6947 12.3077 4.6948 12.3078 4.69475C12.8349 4.15754 13.4608 3.73123 14.1496 3.44046ZM16.3223 4.77937C15.8061 4.77937 15.295 4.88299 14.8181 5.08431C14.3412 5.28563 13.9079 5.5807 13.543 5.95266L12.6172 6.89588C12.2762 7.24333 11.7233 7.24333 11.3823 6.89588L10.4567 5.95281C9.7195 5.20178 8.7197 4.77985 7.67721 4.77985C6.63472 4.77985 5.63492 5.20178 4.89777 5.95281C4.16062 6.70385 3.74649 7.72247 3.74649 8.78459C3.74649 9.84672 4.16062 10.8653 4.89777 11.6164L11.9998 18.8521L19.1018 11.6164C19.4669 11.2446 19.7566 10.803 19.9542 10.3171C20.1518 9.83127 20.2535 9.31051 20.2535 8.78459C20.2535 8.25868 20.1518 7.73791 19.9542 7.25205C19.7566 6.76619 19.467 6.32475 19.1019 5.95296C18.737 5.58099 18.3034 5.28563 17.8265 5.08431C17.3497 4.88299 16.8385 4.77937 16.3223 4.77937Z" fill="#9B9B9B"/>
</svg>
