<svg width="24" height="24" viewBox="0 0 24 24" fill="none" xmlns="http://www.w3.org/2000/svg">
    <path fill-rule="evenodd" clip-rule="evenodd" d="M11.4475 2.1915C11.7725 1.93617 12.2275 1.93617 12.5525 2.1915L20.6525 8.55513C20.8718 8.72737 21 8.99219 21 9.27273V19.2727C21 19.996 20.7155 20.6897 20.2092 21.2012C19.7028 21.7127 19.0161 22 18.3 22H5.7C4.98392 22 4.29716 21.7127 3.79081 21.2012C3.28446 20.6897 3 19.996 3 19.2727V9.27273C3 8.99219 3.12823 8.72737 3.34745 8.55513L11.4475 2.1915ZM4.8 9.71735V19.2727C4.8 19.5138 4.89482 19.7451 5.0636 19.9156C5.23239 20.086 5.46131 20.1818 5.7 20.1818H18.3C18.5387 20.1818 18.7676 20.086 18.9364 19.9156C19.1052 19.7451 19.2 19.5138 19.2 19.2727V9.71735L12 4.06078L4.8 9.71735Z" fill="#9B9B9B"/>
    <path fill-rule="evenodd" clip-rule="evenodd" d="M8.4 12C8.4 11.4979 8.80294 11.0909 9.3 11.0909H14.7C15.1971 11.0909 15.6 11.4979 15.6 12V21.0909C15.6 21.593 15.1971 22 14.7 22C14.2029 22 13.8 21.593 13.8 21.0909V12.9091H10.2V21.0909C10.2 21.593 9.79706 22 9.3 22C8.80294 22 8.4 21.593 8.4 21.0909V12Z" fill="#9B9B9B"/>
</svg>
