<svg width="24" height="24" viewBox="0 0 24 24" fill="none" xmlns="http://www.w3.org/2000/svg">
    <path fill-rule="evenodd" clip-rule="evenodd" d="M6.56 3.00614C6.71108 2.79249 6.94819 2.66675 7.2 2.66675H16.8C17.0518 2.66675 17.2889 2.79249 17.44 3.00614L19.84 6.40008C19.9439 6.54695 20 6.72559 20 6.90917V18.788C20 19.4631 19.7471 20.1105 19.2971 20.5879C18.847 21.0652 18.2365 21.3334 17.6 21.3334H6.4C5.76348 21.3334 5.15303 21.0652 4.70294 20.5879C4.25286 20.1105 4 19.4631 4 18.788V6.90917C4 6.72559 4.05614 6.54695 4.16 6.40008L6.56 3.00614ZM7.6 4.36372L5.6 7.192V18.788C5.6 19.013 5.68428 19.2288 5.83431 19.3879C5.98434 19.5471 6.18783 19.6364 6.4 19.6364H17.6C17.8122 19.6364 18.0157 19.5471 18.1657 19.3879C18.3157 19.2288 18.4 19.013 18.4 18.788V7.192L16.4 4.36372H7.6Z" fill="#9B9B9B"/>
    <path fill-rule="evenodd" clip-rule="evenodd" d="M4 6.90917C4 6.44057 4.35817 6.06069 4.8 6.06069H19.2C19.6418 6.06069 20 6.44057 20 6.90917C20 7.37778 19.6418 7.75766 19.2 7.75766H4.8C4.35817 7.75766 4 7.37778 4 6.90917Z" fill="#9B9B9B"/>
    <path fill-rule="evenodd" clip-rule="evenodd" d="M8.8 9.45463C9.24183 9.45463 9.6 9.83451 9.6 10.3031C9.6 10.9782 9.85285 11.6257 10.3029 12.103C10.753 12.5804 11.3635 12.8486 12 12.8486C12.6365 12.8486 13.247 12.5804 13.6971 12.103C14.1471 11.6257 14.4 10.9782 14.4 10.3031C14.4 9.83451 14.7582 9.45463 15.2 9.45463C15.6418 9.45463 16 9.83451 16 10.3031C16 11.4283 15.5786 12.5073 14.8284 13.303C14.0783 14.0986 13.0609 14.5455 12 14.5455C10.9391 14.5455 9.92172 14.0986 9.17157 13.303C8.42143 12.5073 8 11.4283 8 10.3031C8 9.83451 8.35817 9.45463 8.8 9.45463Z" fill="#9B9B9B"/>
</svg>
