<svg width="24" height="24" viewBox="0 0 24 24" fill="none" xmlns="http://www.w3.org/2000/svg">
    <path fill-rule="evenodd" clip-rule="evenodd" d="M6.18605 12C6.18605 11.3505 6.29628 10.7277 6.49302 10.1436L3.0493 7.57001C2.37814 8.90364 2 10.4064 2 12C2 13.5923 2.37767 15.0941 3.04791 16.4268L6.48977 13.8482C6.29488 13.2668 6.18605 12.6464 6.18605 12Z" fill="#FBBC05"/>
    <path fill-rule="evenodd" clip-rule="evenodd" d="M12.2326 6.09091C13.6744 6.09091 14.9768 6.59091 16 7.40909L18.9768 4.5C17.1628 2.95455 14.8372 2 12.2326 2C8.18885 2 4.7135 4.26318 3.04932 7.57L6.49304 10.1436C7.28653 7.78636 9.54839 6.09091 12.2326 6.09091Z" fill="#EA4335"/>
    <path fill-rule="evenodd" clip-rule="evenodd" d="M12.2326 17.9091C9.54839 17.9091 7.28653 16.2137 6.49304 13.8564L3.04932 16.4296C4.7135 19.7369 8.18885 22.0001 12.2326 22.0001C14.7284 22.0001 17.1112 21.1328 18.8995 19.5078L15.6307 17.0346C14.7084 17.6032 13.547 17.9091 12.2326 17.9091Z" fill="#34A853"/>
    <path fill-rule="evenodd" clip-rule="evenodd" d="M22.0001 12C22.0001 11.4091 21.9071 10.7727 21.7675 10.1818H12.2327V14.0455H17.721C17.4466 15.3627 16.6996 16.3755 15.6308 17.0346L18.8996 19.5077C20.7782 17.8014 22.0001 15.2596 22.0001 12Z" fill="#4285F4"/>
</svg>
